<svg width="21" height="24" viewBox="0 0 21 24" fill="none" xmlns="http://www.w3.org/2000/svg">
<mask id="mask0" mask-type="alpha" maskUnits="userSpaceOnUse" x="0" y="0" width="21" height="24">
<path d="M14.7199 6.66667H13.3866H6.71992H5.38658H2.67061L1.43984 22.6667H18.6667L17.4359 6.66667H14.7199ZM13.3866 5.33333C13.3866 2.6241 12.1408 1.33333 10.0533 1.33333C7.9657 1.33333 6.71992 2.6241 6.71992 5.33333H13.3866ZM5.38658 5.33333C5.38658 1.8981 7.21852 0 10.0533 0C12.888 0 14.7199 1.8981 14.7199 5.33333H18.6706L20.1065 24H0L1.4359 5.33333H5.38658Z" fill="white"/>
</mask>
<g mask="url(#mask0)">
<path d="M14.7199 6.66667H13.3866H6.71992H5.38658H2.67061L1.43984 22.6667H18.6667L17.4359 6.66667H14.7199ZM13.3866 5.33333C13.3866 2.6241 12.1408 1.33333 10.0533 1.33333C7.9657 1.33333 6.71992 2.6241 6.71992 5.33333H13.3866ZM5.38658 5.33333C5.38658 1.8981 7.21852 0 10.0533 0C12.888 0 14.7199 1.8981 14.7199 5.33333H18.6706L20.1065 24H0L1.4359 5.33333H5.38658Z" fill="white"/>
</g>
</svg>
