<svg width="333" height="77" viewBox="0 0 333 77" fill="none" xmlns="http://www.w3.org/2000/svg">
<g filter="url(#filter0_d)">
<path d="M8 0H325V42C325 56.9117 312.912 69 298 69H39C21.8792 69 8 55.1208 8 38V0Z" fill="#0E1B2C"/>
</g>
<path d="M41 43.6694V42.9752C42.2067 42.9752 42.9107 42.7548 43.1118 42.314V25.686C42.9107 25.2452 42.2067 25.0248 41 25.0248V24.3306H48.5756C51.3243 24.3306 53.4138 24.8485 54.844 25.8843C56.2965 26.9201 57.0228 28.0771 57.0228 29.3554C57.0228 31.0083 56.3524 32.3416 55.0116 33.3554C53.6708 34.3691 51.6595 34.876 48.9779 34.876H46.1957V42.314C46.3968 42.7548 47.1007 42.9752 48.3075 42.9752V43.6694H41ZM46.1957 25.4545V33.7521H48.9779C50.6986 33.7521 51.9053 33.4215 52.5981 32.7603C53.3132 32.0771 53.6708 30.9532 53.6708 29.3884C53.6708 26.7658 51.9724 25.4545 48.5756 25.4545H46.1957Z" fill="white"/>
<path d="M63.5661 43.6694V42.9752C64.7729 42.9752 65.4768 42.7548 65.6779 42.314V25.686C65.4768 25.2452 64.7729 25.0248 63.5661 25.0248V24.3306H71.1418C73.9128 24.3306 76.0134 24.8264 77.4436 25.8182C78.8738 26.8099 79.5889 27.9449 79.5889 29.2231C79.5889 30.4353 79.2202 31.5041 78.4828 32.4298C77.7453 33.3333 76.6503 33.9945 75.1978 34.4132L79.656 42.281C79.8795 42.7438 80.6169 42.9752 81.8683 42.9752V43.6694H80.427C78.8627 43.6694 77.8459 43.5813 77.3766 43.405C76.9073 43.2287 76.438 42.7438 75.9687 41.9504L71.9127 34.876H68.7618V42.314C68.9629 42.7548 69.6669 42.9752 70.8736 42.9752V43.6694H63.5661ZM68.7618 25.4545V33.7521H71.544C73.3318 33.7521 74.5609 33.4105 75.2313 32.7273C75.9017 32.0441 76.2369 30.8871 76.2369 29.2562C76.2369 28.0441 75.857 27.1074 75.0972 26.4463C74.3597 25.7851 73.0413 25.4545 71.1418 25.4545H68.7618Z" fill="white"/>
<path d="M87.7363 43.6694V42.9752C88.943 42.9752 89.6469 42.7548 89.8481 42.314V25.686C89.6469 25.2452 88.943 25.0248 87.7363 25.0248V24.3306H101.245V27.5372H100.541C100.541 26.3471 100.318 25.6529 99.8707 25.4545H92.932V33.0579H97.6248C98.0718 32.8595 98.2952 32.1653 98.2952 30.9752H98.9992V36.2645H98.2952C98.2952 35.0744 98.0718 34.3802 97.6248 34.1818H92.932V42.5455H100.575C101.133 42.303 101.636 41.6088 102.083 40.4628H102.753L101.949 43.6694H87.7363Z" fill="white"/>
<path d="M116.357 44C115.262 44 114.145 43.8347 113.005 43.5041C111.866 43.1736 111.273 43.0083 111.229 43.0083C111.095 43.0083 110.938 43.0744 110.759 43.2066C110.581 43.3388 110.491 43.4931 110.491 43.6694H109.72V39.0744H110.458C110.704 40.3967 111.363 41.3664 112.435 41.9835C113.53 42.5785 114.771 42.876 116.156 42.876C117.341 42.876 118.313 42.6116 119.072 42.0826C119.832 41.5537 120.212 40.7603 120.212 39.7025C120.212 39.2176 120.1 38.7769 119.877 38.3802C119.676 37.9835 119.352 37.6198 118.905 37.2893C118.48 36.9366 118.067 36.6501 117.665 36.4298C117.262 36.1873 116.737 35.9008 116.089 35.5702C115.463 35.2176 114.983 34.9421 114.648 34.7438C113.866 34.259 113.285 33.8953 112.905 33.6529C112.525 33.3884 112.033 33.0028 111.43 32.4959C110.849 31.989 110.424 31.4601 110.156 30.9091C109.888 30.3581 109.754 29.7631 109.754 29.124C109.754 27.8237 110.357 26.6446 111.564 25.5868C112.771 24.5289 114.123 24 115.62 24C116.268 24 117.072 24.1653 118.033 24.4959C118.994 24.8264 119.542 24.9917 119.676 24.9917C119.944 24.9917 120.078 24.7714 120.078 24.3306H120.849L121.184 28.5289H120.447C120.313 27.5592 119.821 26.7548 118.972 26.1157C118.123 25.4545 117.017 25.124 115.653 25.124C114.625 25.124 113.799 25.4545 113.173 26.1157C112.569 26.7548 112.268 27.405 112.268 28.0661C112.268 28.4848 112.368 28.8815 112.569 29.2562C112.771 29.6088 113.083 29.9394 113.508 30.2479C113.933 30.5565 114.335 30.832 114.715 31.0744C115.095 31.2948 115.598 31.5702 116.223 31.9008C116.871 32.2314 117.363 32.4959 117.698 32.6942C118.614 33.2452 119.274 33.6529 119.676 33.9174C120.078 34.1818 120.592 34.5895 121.218 35.1405C121.866 35.6915 122.313 36.2645 122.559 36.8595C122.827 37.4325 122.961 38.0716 122.961 38.7769C122.961 40.4077 122.29 41.686 120.95 42.6116C119.609 43.5372 118.078 44 116.357 44Z" fill="white"/>
<path d="M130.119 43.6694V42.9752C131.326 42.9752 132.029 42.7548 132.231 42.314V25.686C132.029 25.2452 131.326 25.0248 130.119 25.0248V24.3306H143.628V27.5372H142.924C142.924 26.3471 142.7 25.6529 142.253 25.4545H135.314V33.0579H140.007C140.454 32.8595 140.678 32.1653 140.678 30.9752H141.382V36.2645H140.678C140.678 35.0744 140.454 34.3802 140.007 34.1818H135.314V42.5455H142.957C143.516 42.303 144.019 41.6088 144.466 40.4628H145.136L144.332 43.6694H130.119Z" fill="white"/>
<path d="M151.801 43.6694V42.9752C153.008 42.9752 153.712 42.7548 153.913 42.314V25.686C153.712 25.2452 153.008 25.0248 151.801 25.0248V24.3306H156.293L167.388 37.8512V25.686C167.187 25.2452 166.483 25.0248 165.276 25.0248V24.3306H170.64V25.0248C169.433 25.0248 168.729 25.2452 168.528 25.686V43.6694H168.226L155.053 27.2397V42.314C155.254 42.7548 155.958 42.9752 157.164 42.9752V43.6694H151.801Z" fill="white"/>
<path d="M177.033 24.3306H193.86V27.5372H193.156C193.156 26.3471 192.933 25.6529 192.486 25.4545H186.988V42.314C187.189 42.7548 187.893 42.9752 189.1 42.9752V43.6694H181.793V42.9752C182.999 42.9752 183.703 42.7548 183.904 42.314V25.4545H178.407C177.96 25.6529 177.737 26.3471 177.737 27.5372H177.033V24.3306Z" fill="white"/>
<path d="M212.402 34.0826V42.5455H215.251C218.38 42.5455 219.944 41.0468 219.944 38.0496C219.944 37.0138 219.553 36.0992 218.771 35.3058C217.988 34.4904 216.681 34.0826 214.849 34.0826H212.402ZM212.402 25.4545V33.124H213.776C216.905 33.124 218.469 31.7245 218.469 28.9256C218.469 26.6116 216.771 25.4545 213.374 25.4545H212.402ZM207.206 43.6694V42.9752C208.413 42.9752 209.117 42.7548 209.318 42.314V25.686C209.117 25.2452 208.413 25.0248 207.206 25.0248V24.3306H213.374C216.167 24.3306 218.268 24.7824 219.676 25.686C221.106 26.5895 221.821 27.6584 221.821 28.8926C221.821 31.1405 220.637 32.6612 218.268 33.4545C219.944 33.8292 221.195 34.4463 222.022 35.3058C222.871 36.1433 223.296 37.0468 223.296 38.0165C223.296 39.6915 222.614 41.0578 221.251 42.1157C219.91 43.1515 217.91 43.6694 215.251 43.6694H207.206Z" fill="white"/>
<path d="M234.01 33.7521C234.01 35.2066 234.211 36.6061 234.613 37.9504C235.038 39.2727 235.719 40.4298 236.658 41.4215C237.619 42.3912 238.758 42.876 240.077 42.876C241.395 42.876 242.501 42.4132 243.395 41.4876C244.312 40.562 244.948 39.4821 245.306 38.2479C245.686 36.9917 245.876 35.6694 245.876 34.281C245.876 32.8485 245.664 31.4601 245.239 30.1157C244.814 28.7493 244.122 27.5813 243.161 26.6116C242.222 25.6198 241.105 25.124 239.809 25.124C238.803 25.124 237.909 25.3884 237.127 25.9174C236.367 26.4463 235.764 27.1515 235.317 28.0331C234.892 28.8926 234.568 29.8072 234.345 30.7769C234.121 31.7466 234.01 32.7383 234.01 33.7521ZM230.658 34.0165C230.658 31.2617 231.529 28.9036 233.272 26.9421C235.015 24.9807 237.239 24 239.943 24C242.647 24 244.87 24.9807 246.613 26.9421C248.356 28.9036 249.228 31.2617 249.228 34.0165C249.228 36.7713 248.345 39.1295 246.58 41.0909C244.837 43.0303 242.624 44 239.943 44C237.216 44 234.982 43.0303 233.239 41.0909C231.518 39.1515 230.658 36.7934 230.658 34.0165Z" fill="white"/>
<path d="M263.696 44C262.601 44 261.484 43.8347 260.344 43.5041C259.204 43.1736 258.612 43.0083 258.568 43.0083C258.434 43.0083 258.277 43.0744 258.098 43.2066C257.92 43.3388 257.83 43.4931 257.83 43.6694H257.059V39.0744H257.797C258.042 40.3967 258.702 41.3664 259.774 41.9835C260.869 42.5785 262.11 42.876 263.495 42.876C264.679 42.876 265.652 42.6116 266.411 42.0826C267.171 41.5537 267.551 40.7603 267.551 39.7025C267.551 39.2176 267.439 38.7769 267.216 38.3802C267.015 37.9835 266.691 37.6198 266.244 37.2893C265.819 36.9366 265.406 36.6501 265.004 36.4298C264.601 36.1873 264.076 35.9008 263.428 35.5702C262.802 35.2176 262.322 34.9421 261.987 34.7438C261.205 34.259 260.624 33.8953 260.244 33.6529C259.864 33.3884 259.372 33.0028 258.769 32.4959C258.188 31.989 257.763 31.4601 257.495 30.9091C257.227 30.3581 257.093 29.7631 257.093 29.124C257.093 27.8237 257.696 26.6446 258.903 25.5868C260.11 24.5289 261.462 24 262.959 24C263.607 24 264.411 24.1653 265.372 24.4959C266.333 24.8264 266.881 24.9917 267.015 24.9917C267.283 24.9917 267.417 24.7714 267.417 24.3306H268.188L268.523 28.5289H267.786C267.652 27.5592 267.16 26.7548 266.311 26.1157C265.462 25.4545 264.355 25.124 262.992 25.124C261.964 25.124 261.137 25.4545 260.512 26.1157C259.908 26.7548 259.607 27.405 259.607 28.0661C259.607 28.4848 259.707 28.8815 259.908 29.2562C260.11 29.6088 260.422 29.9394 260.847 30.2479C261.272 30.5565 261.674 30.832 262.054 31.0744C262.434 31.2948 262.936 31.5702 263.562 31.9008C264.21 32.2314 264.702 32.4959 265.037 32.6942C265.953 33.2452 266.613 33.6529 267.015 33.9174C267.417 34.1818 267.931 34.5895 268.557 35.1405C269.205 35.6915 269.652 36.2645 269.898 36.8595C270.166 37.4325 270.3 38.0716 270.3 38.7769C270.3 40.4077 269.629 41.686 268.289 42.6116C266.948 43.5372 265.417 44 263.696 44Z" fill="white"/>
<path d="M284.396 44C283.301 44 282.184 43.8347 281.044 43.5041C279.905 43.1736 279.312 43.0083 279.268 43.0083C279.134 43.0083 278.977 43.0744 278.799 43.2066C278.62 43.3388 278.53 43.4931 278.53 43.6694H277.759V39.0744H278.497C278.743 40.3967 279.402 41.3664 280.475 41.9835C281.57 42.5785 282.81 42.876 284.195 42.876C285.38 42.876 286.352 42.6116 287.112 42.0826C287.871 41.5537 288.251 40.7603 288.251 39.7025C288.251 39.2176 288.14 38.7769 287.916 38.3802C287.715 37.9835 287.391 37.6198 286.944 37.2893C286.519 36.9366 286.106 36.6501 285.704 36.4298C285.301 36.1873 284.776 35.9008 284.128 35.5702C283.503 35.2176 283.022 34.9421 282.687 34.7438C281.905 34.259 281.324 33.8953 280.944 33.6529C280.564 33.3884 280.072 33.0028 279.469 32.4959C278.888 31.989 278.463 31.4601 278.195 30.9091C277.927 30.3581 277.793 29.7631 277.793 29.124C277.793 27.8237 278.396 26.6446 279.603 25.5868C280.81 24.5289 282.162 24 283.659 24C284.307 24 285.112 24.1653 286.072 24.4959C287.033 24.8264 287.581 24.9917 287.715 24.9917C287.983 24.9917 288.117 24.7714 288.117 24.3306H288.888L289.223 28.5289H288.486C288.352 27.5592 287.86 26.7548 287.011 26.1157C286.162 25.4545 285.056 25.124 283.693 25.124C282.665 25.124 281.838 25.4545 281.212 26.1157C280.609 26.7548 280.307 27.405 280.307 28.0661C280.307 28.4848 280.408 28.8815 280.609 29.2562C280.81 29.6088 281.123 29.9394 281.547 30.2479C281.972 30.5565 282.374 30.832 282.754 31.0744C283.134 31.2948 283.637 31.5702 284.262 31.9008C284.91 32.2314 285.402 32.4959 285.737 32.6942C286.654 33.2452 287.313 33.6529 287.715 33.9174C288.117 34.1818 288.631 34.5895 289.257 35.1405C289.905 35.6915 290.352 36.2645 290.598 36.8595C290.866 37.4325 291 38.0716 291 38.7769C291 40.4077 290.33 41.686 288.989 42.6116C287.648 43.5372 286.117 44 284.396 44Z" fill="white"/>
<defs>
<filter id="filter0_d" x="0" y="-8" width="333" height="85" filterUnits="userSpaceOnUse" color-interpolation-filters="sRGB">
<feFlood flood-opacity="0" result="BackgroundImageFix"/>
<feColorMatrix in="SourceAlpha" type="matrix" values="0 0 0 0 0 0 0 0 0 0 0 0 0 0 0 0 0 0 127 0"/>
<feOffset/>
<feGaussianBlur stdDeviation="4"/>
<feColorMatrix type="matrix" values="0 0 0 0 0 0 0 0 0 0 0 0 0 0 0 0 0 0 0.25 0"/>
<feBlend mode="normal" in2="BackgroundImageFix" result="effect1_dropShadow"/>
<feBlend mode="normal" in="SourceGraphic" in2="effect1_dropShadow" result="shape"/>
</filter>
</defs>
</svg>
