<svg width="50" height="50" viewBox="0 0 50 50" fill="none" xmlns="http://www.w3.org/2000/svg">
<path d="M0 0H50V37C50 44.1797 44.1797 50 37 50H13C5.8203 50 0 44.1797 0 37V0Z" fill="#0E1B2C"/>
<path d="M8.5 34V33.3359C9.63417 33.3359 10.2958 33.1251 10.4848 32.7034V16.7966C10.2958 16.3749 9.63417 16.1641 8.5 16.1641V15.5H15.6201C18.2034 15.5 20.1672 15.9954 21.5114 16.9863C22.8766 17.9772 23.5592 19.084 23.5592 20.3068C23.5592 21.888 22.9292 23.1635 21.669 24.1333C20.4088 25.1031 18.5185 25.588 15.9981 25.588H13.3832V32.7034C13.5723 33.1251 14.2339 33.3359 15.368 33.3359V34H8.5ZM13.3832 16.5752V24.5128H15.9981C17.6154 24.5128 18.7495 24.1966 19.4006 23.5641C20.0727 22.9105 20.4088 21.8353 20.4088 20.3385C20.4088 17.8296 18.8125 16.5752 15.6201 16.5752H13.3832Z" fill="white"/>
<path d="M31.761 24.8291V32.9248H34.4389C37.3793 32.9248 38.8495 31.4912 38.8495 28.6239C38.8495 27.633 38.482 26.7581 37.7469 25.9991C37.0118 25.2191 35.7831 24.8291 34.0608 24.8291H31.761ZM31.761 16.5752V23.912H33.0527C35.9931 23.912 37.4633 22.5732 37.4633 19.8957C37.4633 17.6821 35.8671 16.5752 32.6746 16.5752H31.761ZM26.8777 34V33.3359C28.0119 33.3359 28.6735 33.1251 28.8625 32.7034V16.7966C28.6735 16.3749 28.0119 16.1641 26.8777 16.1641V15.5H32.6746C35.3 15.5 37.2743 15.9322 38.5975 16.7966C39.9417 17.661 40.6138 18.6835 40.6138 19.8641C40.6138 22.0145 39.5006 23.4692 37.2743 24.2282C38.8495 24.5866 40.0257 25.1769 40.8028 25.9991C41.6009 26.8003 42 27.6647 42 28.5923C42 30.1946 41.3594 31.5017 40.0782 32.5137C38.818 33.5046 36.9382 34 34.4389 34H26.8777Z" fill="white"/>
</svg>
