<svg width="16" height="16" viewBox="0 0 16 16" fill="none" xmlns="http://www.w3.org/2000/svg">
<path d="M0.457474 1.66261L0.483905 1.64609L3.82513 0L7.43145 4.8084L5.77227 7.02078C5.82192 7.85512 6.17574 8.6423 6.76676 9.23331C7.35777 9.82432 8.14496 10.1781 8.9793 10.2278L11.1916 8.56859L16 12.1748L14.3676 15.4881L14.3539 15.5161L14.3373 15.5425C14.2502 15.6829 14.1286 15.7986 13.9841 15.8787C13.8396 15.9587 13.6771 16.0005 13.5119 16H12.6497C10.9885 16 9.3436 15.6728 7.80886 15.0371C6.27413 14.4014 4.87963 13.4696 3.705 12.295C2.53037 11.1203 1.5986 9.72584 0.962895 8.1911C0.32719 6.65636 -1.90735e-06 5.01144 3.8147e-06 3.35026V2.48807C-0.000524521 2.32287 0.0412378 2.16029 0.121314 2.0158C0.20139 1.87131 0.317115 1.74972 0.457474 1.66261ZM1.23474 3.35026C1.23474 9.64451 6.35549 14.7653 12.6497 14.7653H13.3473L14.4395 12.548L11.1914 10.1119L9.38302 11.4682H9.17724C7.94555 11.4668 6.7647 10.9769 5.89377 10.106C5.02283 9.23502 4.53294 8.05418 4.53156 6.82249V6.61671L5.8878 4.80836L3.45197 1.56043L1.23474 2.65283V3.35026Z" fill="white"/>
</svg>
