<svg width="36" height="36" viewBox="0 0 36 36" fill="none" xmlns="http://www.w3.org/2000/svg">
<path fill-rule="evenodd" clip-rule="evenodd" d="M18 36C27.9411 36 36 27.9411 36 18C36 8.05888 27.9411 0 18 0C8.05888 0 0 8.05888 0 18C0 27.9411 8.05888 36 18 36ZM14.7 26.25C15.1378 26.25 15.3378 26.0552 15.5796 25.8198L15.6 25.8L17.762 23.6977L22.26 27.0208C23.0877 27.4776 23.6852 27.2411 23.8914 26.2523L26.8441 12.3379C27.1464 11.1258 26.3821 10.5761 25.5902 10.9356L8.2517 17.6213C7.06819 18.096 7.07509 18.7563 8.03597 19.0505L12.4854 20.4392L22.7864 13.9405C23.2727 13.6456 23.719 13.8041 23.3527 14.1292L15.0064 21.6611L15.0063 21.661L15.0063 21.6612L15.006 21.6615L15.0063 21.6617L14.7 26.25Z" fill="white"/>
</svg>
