<svg width="50" height="50" viewBox="0 0 50 50" fill="none" xmlns="http://www.w3.org/2000/svg">
<path d="M38.0846 16.1139H34.4649C34.8984 15.4479 35.1513 14.6541 35.1513 13.8018C35.1513 11.4576 33.2441 9.55042 30.8999 9.55042C29.3455 9.55042 27.984 10.3893 27.2424 11.6378C26.6269 11.1465 25.8477 10.8518 25.0007 10.8518C24.1536 10.8518 23.3745 11.1465 22.7589 11.6378C22.0174 10.3893 20.6559 9.55042 19.1014 9.55042C16.7572 9.55042 14.85 11.4576 14.85 13.8018C14.85 14.6539 15.103 15.4477 15.5364 16.1138H11.9168C10.6234 16.1138 9.57129 17.166 9.57129 18.4594V21.8737C9.57129 22.7396 10.0432 23.4967 10.7432 23.9031V39.9405C10.7432 41.7718 12.233 43.2617 14.0644 43.2617H35.937C37.7683 43.2617 39.2581 41.7718 39.2581 39.9405V23.9032C39.958 23.4968 40.43 22.7397 40.43 21.8738V18.4595C40.4301 17.1662 39.3779 16.1139 38.0846 16.1139ZM28.6015 13.8019C28.6015 12.5345 29.6326 11.5036 30.9 11.5036C32.1673 11.5036 33.1984 12.5347 33.1984 13.802C33.1984 15.0693 32.1673 16.1004 30.9 16.1004H28.6015V13.8019ZM29.6044 18.067L32.5701 23.2931L31.8717 23.1056C31.6213 23.0386 31.3548 23.0735 31.1303 23.2031C30.9059 23.3327 30.7421 23.5462 30.6752 23.7964L30.5044 24.4345L26.9229 18.0669H29.6044V18.067ZM25.0008 12.805C25.9094 12.805 26.6485 13.544 26.6485 14.4526C26.6485 15.3611 25.9094 16.1003 25.0008 16.1003C24.0923 16.1003 23.3532 15.3611 23.3532 14.4526C23.3532 13.544 24.0922 12.805 25.0008 12.805ZM23.1675 18.067L20.1782 23.2913L20.001 22.629C19.934 22.3787 19.7704 22.1653 19.5459 22.0357C19.3215 21.9062 19.055 21.8711 18.8046 21.9382L18.113 22.1238L20.4268 18.067H23.1675ZM19.1016 11.5036C20.369 11.5036 21.4001 12.5346 21.4001 13.8019V16.1004H19.1016C17.8343 16.1004 16.8032 15.0692 16.8032 13.8019C16.8032 12.5346 17.8344 11.5036 19.1016 11.5036ZM11.5246 21.8737V18.4595C11.5246 18.2431 11.7007 18.067 11.9171 18.067H18.1783L15.7835 22.2662H11.9171C11.7007 22.2662 11.5246 22.0901 11.5246 21.8737ZM26.7585 41.3087H14.0644C13.3101 41.3087 12.6963 40.695 12.6963 39.9405V24.2193H15.2976C15.3092 24.2364 15.3188 24.2542 15.3315 24.2706C15.5723 24.5826 15.977 24.7192 16.3577 24.6171L18.3667 24.078L18.9043 26.0876C19.0065 26.4699 19.3295 26.7527 19.7218 26.8037C19.764 26.8091 19.8061 26.8118 19.8479 26.8118C20.1948 26.8118 20.5197 26.6267 20.6952 26.3203L21.2897 25.2813V35.1567C21.2897 35.6959 21.727 36.1332 22.2663 36.1332C22.8056 36.1332 23.2428 35.6959 23.2428 35.1567V24.2768H26.7583V41.3087H26.7585ZM22.9822 22.3237L25.0468 18.7155L27.0763 22.3237H22.9822ZM37.3052 39.9405C37.3052 40.6949 36.6914 41.3087 35.937 41.3087H28.7116V25.2314L29.9771 27.4814C30.1516 27.7915 30.4784 27.9792 30.828 27.9792C30.8686 27.9792 30.9094 27.9768 30.9504 27.9715C31.3444 27.9218 31.669 27.6386 31.7716 27.2551L32.3091 25.2455L34.3183 25.7846C34.6986 25.8867 35.1029 25.7504 35.3439 25.439C35.5848 25.1275 35.6151 24.7019 35.4208 24.3594L35.3412 24.2192H37.3052V39.9405ZM38.477 21.8738C38.477 22.0902 38.3009 22.2663 38.0845 22.2663H34.2328L31.85 18.0671H38.0845C38.3009 18.067 38.477 18.2431 38.477 18.4595V21.8738Z" fill="white" fill-opacity="0.9"/>
<path d="M22.957 38.0298C22.7753 37.8482 22.5233 37.7446 22.2666 37.7446C22.0097 37.7446 21.7579 37.8482 21.5762 38.0298C21.3945 38.2115 21.29 38.4634 21.29 38.7212C21.29 38.978 21.3945 39.2299 21.5762 39.4116C21.7579 39.5931 22.0098 39.6977 22.2666 39.6977C22.5234 39.6977 22.7753 39.5932 22.957 39.4116C23.1386 39.2289 23.2431 38.9779 23.2431 38.7212C23.243 38.4634 23.1385 38.2124 22.957 38.0298Z" fill="#AD8351"/>
<path d="M47.1548 2.85444C46.7735 2.47316 46.1551 2.47316 45.7737 2.85444L36.8099 11.8184C36.4286 12.1999 36.4286 12.8182 36.8099 13.1996C37.0006 13.3902 37.2505 13.4857 37.5004 13.4857C37.7502 13.4857 38.0002 13.3902 38.1909 13.1996L47.1548 4.23561C47.5361 3.85423 47.5361 3.23592 47.1548 2.85444Z" fill="#AD8351"/>
<path d="M9.7736 8.58757L4.25607 3.07014C3.87469 2.68886 3.25638 2.68886 2.8749 3.07014C2.49352 3.45152 2.49352 4.06983 2.8749 4.4513L8.39243 9.96874C8.58317 10.1594 8.8331 10.2548 9.08292 10.2548C9.33274 10.2548 9.58276 10.1594 9.77341 9.96874C10.1549 9.58736 10.1549 8.96905 9.7736 8.58757Z" fill="#AD8351"/>
<path d="M9.32962 40.7687C8.94834 40.3875 8.33003 40.3875 7.94855 40.7687L0.384666 48.3327C0.00328828 48.7141 0.00328828 49.3324 0.384666 49.7139C0.575404 49.9045 0.825327 50 1.07515 50C1.32498 50 1.575 49.9045 1.76564 49.7139L9.32962 42.1499C9.711 41.7685 9.711 41.1502 9.32962 40.7687Z" fill="#AD8351"/>
<path d="M47.2714 45.8899L42.3961 41.0146C42.0147 40.6333 41.3964 40.6333 41.015 41.0146C40.6337 41.396 40.6337 42.0143 41.015 42.3958L45.8903 47.2711C46.0811 47.4617 46.331 47.5571 46.5808 47.5571C46.8306 47.5571 47.0807 47.4617 47.2713 47.2711C47.6528 46.8897 47.6528 46.2714 47.2714 45.8899Z" fill="#AD8351"/>
<path d="M6.49398 24.0239H0.976543C0.437242 24.0239 0 24.4613 0 25.0005C0 25.5397 0.437242 25.977 0.976543 25.977H6.49398C7.03328 25.977 7.47052 25.5398 7.47052 25.0005C7.47052 24.4613 7.03338 24.0239 6.49398 24.0239Z" fill="#AD8351"/>
<path d="M49.0225 24.0239H43.4521C42.9128 24.0239 42.4756 24.4613 42.4756 25.0005C42.4756 25.5397 42.9128 25.977 43.4521 25.977H49.0225C49.5618 25.977 49.999 25.5398 49.999 25.0005C49.999 24.4613 49.5619 24.0239 49.0225 24.0239Z" fill="#AD8351"/>
<path d="M25.0005 0C24.4612 0 24.0239 0.43734 24.0239 0.976543V8.46337C24.0239 9.00257 24.4612 9.43991 25.0005 9.43991C25.5398 9.43991 25.977 9.00257 25.977 8.46337V0.976445C25.9769 0.437242 25.5398 0 25.0005 0Z" fill="#AD8351"/>
<path d="M25.0005 44.3137C24.4612 44.3137 24.0239 44.7511 24.0239 45.2903V49.0235C24.0239 49.5627 24.4612 50 25.0005 50C25.5398 50 25.977 49.5627 25.977 49.0235V45.2903C25.9769 44.7509 25.5398 44.3137 25.0005 44.3137Z" fill="#AD8351"/>
<path d="M44.285 34.5588H43.6152C43.0759 34.5588 42.6387 34.9962 42.6387 35.5354C42.6387 36.0746 43.0759 36.5119 43.6152 36.5119H44.285C44.8243 36.5119 45.2615 36.0746 45.2615 35.5354C45.2615 34.9962 44.8244 34.5588 44.285 34.5588Z" fill="#AD8351"/>
<path d="M6.4891 15.5294H5.81932C5.28002 15.5294 4.84277 15.9668 4.84277 16.506C4.84277 17.0452 5.28002 17.4825 5.81932 17.4825H6.4891C7.0284 17.4825 7.46564 17.0453 7.46564 16.506C7.46564 15.9668 7.0285 15.5294 6.4891 15.5294Z" fill="#AD8351"/>
<path d="M1.75082 15.5294H1.08104C0.541734 15.5294 0.104492 15.9668 0.104492 16.506C0.104492 17.0452 0.541734 17.4825 1.08104 17.4825H1.75082C2.29012 17.4825 2.72736 17.0453 2.72736 16.506C2.72736 15.9668 2.29021 15.5294 1.75082 15.5294Z" fill="#AD8351"/>
<path d="M3.78514 17.5637C3.24584 17.5637 2.80859 18.0011 2.80859 18.5403V19.2099C2.80859 19.7492 3.24584 20.1865 3.78514 20.1865C4.32444 20.1865 4.76168 19.7492 4.76168 19.2099V18.5403C4.76168 18.0009 4.32444 17.5637 3.78514 17.5637Z" fill="#AD8351"/>
<path d="M3.78514 12.8254C3.24584 12.8254 2.80859 13.2628 2.80859 13.802V14.4717C2.80859 15.0109 3.24584 15.4482 3.78514 15.4482C4.32444 15.4482 4.76168 15.0109 4.76168 14.4717V13.802C4.76168 13.2627 4.32444 12.8254 3.78514 12.8254Z" fill="#AD8351"/>
<path d="M36.4912 1.92151C34.8758 1.92151 33.5615 3.23577 33.5615 4.85114C33.5615 6.4665 34.8758 7.78077 36.4912 7.78077C38.1065 7.78077 39.4208 6.4665 39.4208 4.85114C39.4208 3.23577 38.1066 1.92151 36.4912 1.92151ZM36.4912 5.82768C35.9527 5.82768 35.5146 5.38956 35.5146 4.85114C35.5146 4.31272 35.9527 3.8746 36.4912 3.8746C37.0296 3.8746 37.4677 4.31272 37.4677 4.85114C37.4677 5.38956 37.0297 5.82768 36.4912 5.82768Z" fill="#AD8351"/>
<path d="M4.2016 32.6058C2.58624 32.6058 1.27197 33.9201 1.27197 35.5355C1.27197 37.1508 2.58624 38.4651 4.2016 38.4651C5.81696 38.4651 7.13123 37.1508 7.13123 35.5355C7.13123 33.9201 5.81696 32.6058 4.2016 32.6058ZM4.2016 36.512C3.66318 36.512 3.22506 36.0739 3.22506 35.5355C3.22506 34.997 3.66318 34.5589 4.2016 34.5589C4.74002 34.5589 5.17814 34.997 5.17814 35.5355C5.17814 36.0739 4.74002 36.512 4.2016 36.512Z" fill="#AD8351"/>
<path d="M37.1821 45.5766C37.0004 45.3948 36.7484 45.2904 36.4917 45.2904C36.2338 45.2904 35.9829 45.3948 35.8003 45.5766C35.6187 45.7581 35.5151 46.0101 35.5151 46.2669C35.5151 46.5238 35.6187 46.7746 35.8003 46.9572C35.9829 47.1389 36.2349 47.2435 36.4917 47.2435C36.7484 47.2435 37.0004 47.139 37.1821 46.9572C37.3637 46.7746 37.4682 46.5237 37.4682 46.2669C37.4681 46.0101 37.3636 45.7581 37.1821 45.5766Z" fill="#AD8351"/>
<path d="M16.121 45.5766C15.9394 45.3948 15.6874 45.2904 15.4306 45.2904C15.1738 45.2904 14.9219 45.3948 14.7403 45.5766C14.5586 45.7581 14.4541 46.0092 14.4541 46.2669C14.4541 46.5238 14.5586 46.7746 14.7403 46.9572C14.9219 47.1389 15.1739 47.2435 15.4306 47.2435C15.6875 47.2435 15.9394 47.139 16.121 46.9572C16.3027 46.7746 16.4072 46.5237 16.4072 46.2669C16.4072 46.0091 16.3027 45.7581 16.121 45.5766Z" fill="#AD8351"/>
<path d="M16.7939 4.18874C16.6122 4.00719 16.3603 3.90259 16.1035 3.90259C15.8466 3.90259 15.5948 4.00709 15.4131 4.18874C15.2315 4.3704 15.127 4.62237 15.127 4.87913C15.127 5.13696 15.2315 5.38786 15.4131 5.56952C15.5948 5.75215 15.8467 5.85567 16.1035 5.85567C16.3604 5.85567 16.6122 5.75205 16.7939 5.56952C16.9755 5.38786 17.08 5.13677 17.08 4.87913C17.08 4.62237 16.9755 4.37138 16.7939 4.18874Z" fill="#AD8351"/>
</svg>
