<svg width="50" height="50" viewBox="0 0 50 50" fill="none" xmlns="http://www.w3.org/2000/svg">
<path d="M33.2422 26.3922L28.6687 25.1219L28.4727 24.7297C31.1805 23.9633 33.2297 21.6164 33.5477 18.75H33.5938C35.3172 18.75 36.7188 17.3484 36.7188 15.625C36.7188 14.8594 36.4312 14.1656 35.9719 13.6219C36.4523 12.5313 36.7188 11.3492 36.7188 10.1562C36.7188 7.63359 35 5.42969 32.5219 4.78047C30.9023 2.30547 28.1023 0.78125 25.132 0.78125H22.9164C17.6031 0.78125 13.2812 5.10391 13.2812 10.4164C13.2812 11.5375 13.532 12.6492 13.9844 13.6742C13.5516 14.2109 13.2812 14.8836 13.2812 15.625C13.2812 17.3484 14.6828 18.75 16.4062 18.75H16.4523C16.7711 21.6164 18.8195 23.9633 21.5273 24.7297L21.3313 25.1219L16.7578 26.3922C11.0313 27.9828 7.03125 33.2453 7.03125 39.1883V49.2188H42.9688V39.1883C42.9688 33.2453 38.9688 27.9828 33.2422 26.3922ZM31.1539 39.682L26.2141 45.7195L30.1273 27.4578L32.6273 31.2078L29.593 35L31.1539 39.682ZM17.3727 31.2078L19.8727 27.4578L23.7859 45.7195L18.8461 39.682L20.407 35L17.3727 31.2078ZM27.8117 30.807L27.3875 29.0031L28.5359 26.707L28.682 26.7477L27.8117 30.807ZM25.9438 29.6875L27.0469 34.3797L25 43.9289L22.9539 34.3797L24.0562 29.6875H25.9438ZM21.4641 26.7062L22.6125 29.0023L22.1883 30.8062L21.318 26.7461L21.4641 26.7062ZM33.5938 17.1875V14.0625C34.4555 14.0625 35.1562 14.7633 35.1562 15.625C35.1562 16.4867 34.4555 17.1875 33.5938 17.1875ZM14.8438 15.625C14.8438 14.7633 15.5445 14.0625 16.4062 14.0625H16.443C16.4211 14.2422 16.4062 14.4234 16.4062 14.6094V17.1875C15.5445 17.1875 14.8438 16.4867 14.8438 15.625ZM16.9391 12.5H16.4062C16.0031 12.5 15.6211 12.5828 15.2672 12.7227C14.9891 11.9875 14.8438 11.2031 14.8438 10.4164C14.8438 5.96563 18.4656 2.34375 22.9164 2.34375H25.132C27.6687 2.34375 30.0563 3.69531 31.3617 5.87109L31.5391 6.16641L31.8773 6.23438L31.9531 6.25C33.8094 6.62109 35.1562 8.26406 35.1562 10.1562C35.1562 11.0266 34.9891 11.8938 34.6742 12.7039C34.3359 12.5781 33.975 12.5 33.5938 12.5V11.7734C33.5938 10.0203 32.1672 8.59375 30.4141 8.59375C29.7828 8.59375 29.1734 8.77812 28.65 9.12813L27.8961 9.63125C27.3805 9.97422 26.7797 10.1562 26.1586 10.1562H20.8594C19.1664 10.1562 17.6922 11.1055 16.9391 12.5ZM17.9688 17.9688V14.6094C17.9688 13.0156 19.2656 11.7188 20.8594 11.7188H26.1586C27.0891 11.7188 27.9898 11.4461 28.7625 10.9305L29.5172 10.4273C29.7828 10.25 30.0938 10.1562 30.4141 10.1562C31.3062 10.1562 32.0312 10.882 32.0312 11.7734V17.9688C32.0312 20.9844 29.5773 23.4375 26.5625 23.4375H23.4375C20.4227 23.4375 17.9688 20.9844 17.9688 17.9688ZM23.4375 25H26.5625C26.6609 25 26.7563 24.9891 26.8531 24.9852L27.2516 25.7812L26.0797 28.125H23.9203L22.7484 25.7812L23.1469 24.9852C23.2437 24.9891 23.3391 25 23.4375 25ZM8.59375 39.1883C8.59375 33.9445 12.1234 29.3008 17.1758 27.8969L17.8219 27.7172L15.4391 31.2914L18.6547 35.3117L17.0906 40.0047L23.3508 47.6562H14.0625V35.9375H12.5V47.6562H8.59375V39.1883ZM41.4062 47.6562H37.5V35.9375H35.9375V47.6562H26.6492L32.9086 40.0055L31.3445 35.3125L34.5602 31.2922L32.1773 27.718L32.8234 27.8977C37.8766 29.3008 41.4062 33.9445 41.4062 39.1883V47.6562Z" fill="white" fill-opacity="0.9"/>
<path d="M39.8438 27.3438H41.4062V28.9062H39.8438V27.3438Z" fill="#AD8351"/>
<path d="M44.7983 5.03672C44.4491 4.33984 43.7483 3.90625 42.9686 3.90625C42.189 3.90625 41.4882 4.33984 41.139 5.03672L37.0171 13.2812H39.8437V25.7812H41.4061V11.7188H39.5452L42.5366 5.73594C42.7015 5.40547 43.2358 5.40625 43.3999 5.73594L46.3921 11.7188H44.5311V46.0938H46.0936V13.2812H48.9202L44.7983 5.03672Z" fill="#AD8351"/>
<path d="M44.5312 47.6562H46.0938V49.2188H44.5312V47.6562Z" fill="#AD8351"/>
<path d="M8.59375 27.3438H10.1562V28.9062H8.59375V27.3438Z" fill="#AD8351"/>
<path d="M7.46318 12.7672L10.4546 18.75H8.59365V25.7812H10.1562V20.3125H12.9827L8.86084 12.068C8.51162 11.3711 7.81084 10.9375 7.03115 10.9375C6.25146 10.9375 5.55068 11.3711 5.20146 12.068L1.07959 20.3125H3.90615V46.0938H5.46865V18.75H3.60771L6.59912 12.7672C6.76396 12.4367 7.29834 12.4375 7.46318 12.7672Z" fill="#AD8351"/>
<path d="M3.90625 47.6562H5.46875V49.2188H3.90625V47.6562Z" fill="#AD8351"/>
</svg>
