<svg width="50" height="50" viewBox="0 0 50 50" fill="none" xmlns="http://www.w3.org/2000/svg">
<g clip-path="url(#clip0)">
<path d="M32.8134 5.74133L33.0834 5.82984L32.9137 6.06597C32.5635 6.55234 32.916 7.22641 33.5073 7.22641C33.9341 7.22641 34.1004 6.92466 34.2626 6.69959L34.4224 6.92161C34.6585 7.24968 35.1163 7.32483 35.4447 7.08831C35.7732 6.8518 35.8476 6.39441 35.6115 6.06597L35.4413 5.82984L35.7114 5.74133C36.0959 5.61507 36.3054 5.20155 36.1791 4.81703C36.0532 4.4325 35.6389 4.22346 35.2548 4.34934L34.995 4.43441V4.15021C34.995 3.74547 34.6669 3.41779 34.2626 3.41779C33.8578 3.41779 33.5301 3.74547 33.5301 4.15021V4.43479L33.27 4.34934C32.8855 4.22384 32.4719 4.43288 32.3457 4.81703C32.2198 5.20155 32.4292 5.61545 32.8134 5.74133Z" fill="#AD8351"/>
<path d="M40.0555 13.6031L40.3256 13.6917L40.1559 13.9278C39.9197 14.2558 39.9941 14.7136 40.3226 14.9501C40.651 15.1866 41.1084 15.1115 41.3449 14.7834L41.5048 14.5614C41.6585 14.775 41.8271 15.0882 42.2597 15.0882C42.8498 15.0882 43.2042 14.4149 42.8536 13.9278L42.6839 13.6917L42.9536 13.6031C43.3381 13.4773 43.5475 13.0634 43.4213 12.6788C43.2954 12.2943 42.8815 12.0853 42.4974 12.2112L42.2372 12.2966V12.012C42.2372 11.6073 41.9091 11.2796 41.5048 11.2796C41.1004 11.2796 40.7723 11.6073 40.7723 12.012V12.2966L40.5122 12.2112C40.128 12.0857 39.7141 12.2947 39.5879 12.6788C39.462 13.0634 39.6714 13.4769 40.0555 13.6031Z" fill="#AD8351"/>
<path d="M34.374 10.9866C34.374 11.391 34.0463 11.7191 33.6416 11.7191C33.2372 11.7191 32.9092 11.391 32.9092 10.9866C32.9092 10.5819 33.2372 10.2542 33.6416 10.2542C34.0463 10.2542 34.374 10.5819 34.374 10.9866Z" fill="#AD8351"/>
<path d="M46.0938 22.8428C46.0938 23.2471 45.7657 23.5752 45.3613 23.5752C44.957 23.5752 44.6289 23.2471 44.6289 22.8428C44.6289 22.438 44.957 22.1104 45.3613 22.1104C45.7657 22.1104 46.0938 22.438 46.0938 22.8428Z" fill="#AD8351"/>
<path d="M38.4766 17.2363C38.4766 17.6406 38.1485 17.9687 37.7441 17.9687C37.3398 17.9687 37.0117 17.6406 37.0117 17.2363C37.0117 16.8315 37.3398 16.5038 37.7441 16.5038C38.1485 16.5038 38.4766 16.8315 38.4766 17.2363Z" fill="#AD8351"/>
<path d="M46.3872 7.66511C46.3872 8.06985 46.0595 8.39753 45.6548 8.39753C45.2504 8.39753 44.9224 8.06985 44.9224 7.66511C44.9224 7.26074 45.2504 6.93268 45.6548 6.93268C46.0595 6.93268 46.3872 7.26074 46.3872 7.66511Z" fill="#AD8351"/>
<path d="M24.6679 15.7027L24.4245 17.123C24.41 17.205 24.4032 17.2897 24.4032 17.3747C24.402 17.7673 24.5641 18.1484 24.8464 18.4196C25.1299 18.6942 25.4965 18.8365 25.8699 18.8365C26.3273 18.8365 26.4883 18.6996 27.8242 17.9969H27.825L29.0995 18.6668C30.0684 19.1806 31.2487 18.4673 31.246 17.3747C31.246 17.2897 31.2391 17.205 31.2247 17.123L30.9813 15.7027L32.0124 14.6979C32.5625 14.1669 32.6033 13.3094 32.123 12.7185C31.7415 12.2462 31.201 12.1989 31.201 12.1989C30.7814 12.1409 30.4262 12.4385 30.3709 12.8192C30.3122 13.2213 30.5914 13.5909 30.99 13.6493L29.6835 14.9226C29.5107 15.0916 29.4317 15.3339 29.4725 15.5711L29.7812 17.3702C29.7812 17.3702 29.7812 17.3702 29.7804 17.3702C27.6285 16.2379 28.0069 16.2452 25.8711 17.369H25.8699C25.8688 17.3702 25.8688 17.3702 25.868 17.3702L26.1766 15.5711C26.2174 15.3339 26.1385 15.0916 25.9664 14.9226L24.6591 13.6493L26.4658 13.3864C26.7038 13.3513 26.9098 13.2018 27.0162 12.9859L27.825 11.3494L28.1435 11.9948C28.2675 12.2466 28.5196 12.4038 28.8008 12.4038C29.3428 12.4038 29.6965 11.8335 29.4577 11.3463L29.1384 10.7009C28.6005 9.59918 27.0349 9.62702 26.5104 10.7009L25.8737 11.9918C24.4207 12.2031 23.9664 12.1734 23.5262 12.7185C23.3091 12.9851 23.1939 13.3082 23.1939 13.6531C23.1886 14.4126 23.6322 14.693 24.6679 15.7027Z" fill="#AD8351"/>
<path d="M49.1699 25.7324H39.4218L39.7689 25.3933C40.7481 24.4396 40.2068 22.776 38.8549 22.5796L36.9739 22.3061L36.1327 20.6016C35.5277 19.3756 33.7786 19.3763 33.174 20.6016L32.3325 22.3061L30.4518 22.5796C29.0991 22.776 28.559 24.4396 29.5374 25.3933L29.885 25.7324H27.2642C27.3073 25.3094 27.1673 24.8711 26.8439 24.5472L22.7007 20.404C22.1296 19.833 21.2004 19.833 20.6293 20.404C19.2133 21.8201 18.7952 22.2382 18.0799 22.9534L15.2723 20.1458C14.586 19.4595 13.6163 19.1997 12.6786 19.4507C11.7406 19.7021 11.0307 20.412 10.7797 21.3497L9.31139 26.8292C8.43476 27.2015 7.74697 27.8893 7.37427 28.7663L1.89518 30.2346C-0.101825 30.7694 -0.772071 33.2642 0.691257 34.7276L3.49889 37.5352C2.05845 38.9753 1.08837 39.9457 0.949513 40.0846C0.376923 40.6568 0.376923 41.5834 0.949513 42.156L5.09268 46.2995C5.37841 46.5849 5.7534 46.7275 6.12838 46.7275C6.50337 46.7275 6.87874 46.5849 7.16408 46.2995L26.2659 27.1973H48.4375V44.5314C48.4367 44.9335 48.1083 45.2627 47.7051 45.2638H22.9982C22.595 45.2627 22.267 44.9335 22.2658 44.5314V35.1903C22.2658 34.7871 21.9377 34.4579 21.5334 34.4579C21.1302 34.4579 20.8021 34.7859 20.801 35.1884V35.1903V44.5314C20.801 45.1181 21.0295 45.6697 21.4445 46.0848C21.8595 46.499 22.4115 46.7287 22.9982 46.7287H47.7051C48.9139 46.7287 49.9023 45.7506 49.9023 44.5314V26.4649C49.9023 26.0571 49.5689 25.7324 49.1699 25.7324ZM12.1942 21.7289C12.4372 20.8214 13.5713 20.5166 14.2366 21.1819L17.0442 23.9895C16.0356 24.9977 14.8794 26.154 13.6586 27.3751L14.5421 24.0769C14.6467 23.6862 14.4151 23.2845 14.0241 23.18C13.6335 23.0751 13.2318 23.307 13.1273 23.6977L12.2766 26.8727C11.8413 26.6716 11.3767 26.5599 10.9052 26.5396L12.1942 21.7289ZM10.1247 28.0907C10.9189 27.8591 11.7696 28.0842 12.3414 28.6923C11.3141 29.7196 10.2639 30.7694 9.237 31.7967C7.99607 30.6275 8.50877 28.5622 10.1247 28.0907ZM1.72657 33.6919C1.41453 33.3798 1.29627 32.9388 1.41071 32.5127C1.52477 32.0862 1.8475 31.7639 2.2736 31.6495L7.08435 30.3605C7.10457 30.832 7.21634 31.2966 7.41738 31.7319L4.24276 32.5825C3.85176 32.6871 3.61982 33.0891 3.72472 33.4798C3.82925 33.8704 4.23094 34.1023 4.62157 33.9978L7.91978 33.1139C6.69868 34.335 5.54206 35.4916 4.53421 36.4995L1.72657 33.6919ZM6.128 45.2638L1.98483 41.1203C2.14009 40.9654 3.32914 39.7763 5.05187 38.0532L21.665 21.4401L25.8085 25.5825L6.128 45.2638ZM38.7466 24.3446L37.3229 25.7324H31.9834C30.4526 24.2401 30.464 24.3057 30.5129 24.1551C30.5625 24.0028 30.49 24.0543 32.9241 23.7003C33.1629 23.666 33.3689 23.5161 33.4758 23.2998C34.5679 21.0869 34.495 21.1468 34.653 21.1468C34.8113 21.1468 34.7384 21.0869 35.8306 23.2998C35.9374 23.5161 36.1434 23.666 36.3818 23.7003L38.6443 24.0292C38.7973 24.0513 38.8576 24.2367 38.7466 24.3446Z" fill="white" fill-opacity="0.9"/>
</g>
<defs>
<clipPath id="clip0">
<rect width="50" height="50" fill="white"/>
</clipPath>
</defs>
</svg>
