<svg width="36" height="36" viewBox="0 0 36 36" fill="none" xmlns="http://www.w3.org/2000/svg">
<path fill-rule="evenodd" clip-rule="evenodd" d="M36 18C36 27.9411 27.9411 36 18 36C8.05888 36 0 27.9411 0 18C0 8.05888 8.05888 0 18 0C27.9411 0 36 8.05888 36 18ZM18.5889 28.0144H18.5933C24.4946 28.012 29.2942 23.2112 29.2966 17.3111C29.2977 14.4513 28.1854 11.7621 26.1647 9.73906C24.1439 7.7159 21.4565 6.60124 18.5932 6.60001C12.6936 6.60001 7.89209 11.4013 7.88974 17.3027C7.88894 19.1891 8.38181 21.0304 9.31847 22.6536L7.80001 28.2L13.474 26.7116C15.0374 27.5643 16.7975 28.0138 18.5889 28.0144Z" fill="white" fill-opacity="0.3"/>
<path fill-rule="evenodd" clip-rule="evenodd" d="M14.0616 24.9666L13.7368 24.7738L10.3698 25.657L11.2685 22.3742L11.0569 22.0376C10.1664 20.6212 9.69609 18.9842 9.69678 17.3032C9.69873 12.3982 13.6896 8.40771 18.5967 8.40771C20.9729 8.40854 23.2065 9.33506 24.8861 11.0166C26.5658 12.6982 27.4902 14.9333 27.4893 17.3104C27.4873 22.2157 23.4965 26.2066 18.5932 26.2066H18.5896C16.9932 26.206 15.4275 25.7771 14.0616 24.9666ZM23.6192 19.6154C23.8057 19.7056 23.9317 19.7665 23.9855 19.8562C24.0523 19.9677 24.0523 20.5032 23.8295 21.128C23.6066 21.7527 22.5382 22.3229 22.0243 22.3996C21.5636 22.4685 20.9805 22.4973 20.3398 22.2937C19.9514 22.1704 19.4533 22.0059 18.8152 21.7303C16.308 20.6477 14.6137 18.2177 14.2934 17.7584C14.271 17.7262 14.2553 17.7037 14.2465 17.692L14.2444 17.6892C14.1028 17.5003 13.1545 16.235 13.1545 14.9255C13.1545 13.6936 13.7596 13.0479 14.0382 12.7506C14.0573 12.7303 14.0748 12.7116 14.0905 12.6944C14.3357 12.4266 14.6254 12.3597 14.8037 12.3597C14.982 12.3597 15.1605 12.3614 15.3163 12.3692C15.3355 12.3701 15.3555 12.37 15.3762 12.3699C15.532 12.369 15.7263 12.3679 15.918 12.8283C15.9918 13.0055 16.0997 13.2682 16.2135 13.5452C16.4436 14.1055 16.6978 14.7245 16.7426 14.814C16.8095 14.9479 16.854 15.104 16.7649 15.2826C16.7515 15.3094 16.7391 15.3346 16.7273 15.3588C16.6603 15.4955 16.6111 15.596 16.4974 15.7287C16.4528 15.7809 16.4066 15.8371 16.3604 15.8934C16.2684 16.0054 16.1764 16.1175 16.0963 16.1973C15.9624 16.3306 15.823 16.4753 15.979 16.7431C16.135 17.0108 16.6718 17.8866 17.4668 18.5958C18.3215 19.3581 19.0643 19.6803 19.4408 19.8436C19.5143 19.8755 19.5738 19.9013 19.6175 19.9232C19.8849 20.0571 20.0409 20.0347 20.1969 19.8562C20.3529 19.6778 20.8655 19.0753 21.0437 18.8076C21.222 18.5399 21.4003 18.5845 21.6454 18.6737C21.8906 18.7631 23.2055 19.41 23.4729 19.5438C23.5251 19.57 23.5739 19.5936 23.6192 19.6154Z" fill="white" fill-opacity="0.3"/>
</svg>
